# xmcd
#
# Track frame offsets: 
#        150
#        13849
#        30493
#        43597
#        55269
#        68403
#        94475
#        114622
#        129828
#        143038
#        157473
#        174175
#        194097
#        205985
#        219973
#        239408
#        256949
#        270084
#        281834
#        291365
#
# Disc length: 4047 seconds
#
# Revision: 0
# Processed by: cddbd v1.5.2PL0 Copyright (c) Steve Scherf et al.
# Submitted via: ExactAudioCopy v1.3
#
DISCID=2c0fcd14
DTITLE=Richard Mulligan - I Never Met You
DYEAR=2018
DGENRE=Country
TTITLE0=Clayton Delaney
TTITLE1=A Matter Of Time
TTITLE2=Faded Love
TTITLE3=Marian's Song
TTITLE4=Four Country Roads
TTITLE5=Get Over You
TTITLE6=I Never Met You
TTITLE7=I Forget To Remember To Forget
TTITLE8=Kilkerrin My Hometown
TTITLE9=She Didn't Leave Me Today
TTITLE10=It Keeps Right On A-Hurtin'
TTITLE11=Somewhere in Connemara
TTITLE12=Tulsa Time
TTITLE13=The Wind On The Hill
TTITLE14=Wagon Wheel
TTITLE15=Old Dogs and Children and Watermelon Wine
TTITLE16=You Asked Me To
TTITLE17=Whst Now, What Next, Where To
TTITLE18=Your Cheatin' Heart
TTITLE19=You're My Best Friend
EXTD=
EXTT0=
EXTT1=
EXTT2=
EXTT3=
EXTT4=
EXTT5=
EXTT6=
EXTT7=
EXTT8=
EXTT9=
EXTT10=
EXTT11=
EXTT12=
EXTT13=
EXTT14=
EXTT15=
EXTT16=
EXTT17=
EXTT18=
EXTT19=
PLAYORDER=
